; NON-PLATED HOLES START AT T1
; THROUGH (PLATED) HOLES START AT T100
M48
INCH
T1C0.165354
T2C0.157480
T3C0.120079
T4C0.158908
T5C0.065278
T100C0.042000
T101C0.015748
T102C0.036972
T103C0.031496
%
T1
X128400Y044418
X128400Y087218
X001600Y001618
X065000Y087218
X065000Y044418
X065000Y001618
X128400Y001618
X001600Y087218
X001600Y044418
T2
X111401Y045336
X096407Y030336
X017644Y045336
X126382Y030336
X017644Y036002
X118901Y082836
X017644Y073502
X088893Y030336
X010144Y082836
X103890Y036002
X118901Y073502
X126382Y021002
X103882Y021002
X103882Y030336
X118882Y030336
X017644Y021002
X118882Y021002
X111382Y021002
X103890Y045336
X010144Y073502
X111382Y030336
X017644Y006002
X111401Y036002
X126401Y073502
X096407Y021002
X126401Y082836
X017644Y015336
X017644Y030336
X088893Y021002
X017644Y082836
T3
X011644Y030336
X120382Y021002
X097889Y045336
X112882Y021002
X105382Y021002
X112882Y030336
X090407Y030336
X011644Y021002
X011644Y015336
X011644Y006002
X011644Y045336
X112901Y073502
X097881Y030336
X097889Y036002
X105382Y030336
X011644Y073502
X011644Y036002
X120401Y073502
X004144Y082836
X004144Y073502
X011644Y082836
X082892Y021002
X082892Y030336
X097881Y021002
X120382Y030336
X120401Y082836
X105401Y036002
X112901Y082836
X105401Y045336
X090407Y021002
T4
X029401Y044414
X100645Y066918
X085647Y014414
X036891Y066916
X115652Y044418
X036891Y006915
X085647Y036911
X085647Y051911
X014398Y025718
X044397Y021911
X051892Y051915
X093149Y059415
X108136Y025718
X108142Y081918
X021899Y044417
X044397Y059414
X100636Y025718
X044397Y081916
X078149Y006917
X108142Y074411
X123150Y044414
X085647Y006911
X029396Y036914
X051892Y066916
X029396Y066914
X093149Y081916
X006898Y006917
X051892Y029419
X029396Y006914
X100645Y059416
X070642Y081911
X078149Y074410
X021893Y014421
X021893Y081917
X115647Y014422
X059400Y074404
X070648Y044411
X115636Y025718
X115647Y059416
X123154Y078218
X051892Y036915
X044397Y006916
X085647Y074403
X085647Y081911
X029396Y074406
X051892Y014419
X108142Y066919
X078155Y044417
X115647Y066918
X059399Y081912
X070642Y074403
X100645Y006918
X059400Y006912
X006898Y021913
X021893Y006917
X006903Y044417
X059400Y029415
X014398Y040718
X123145Y014418
X070642Y021906
X059400Y036912
X006898Y051917
X070642Y014414
X014393Y051910
X070642Y059409
X014398Y078218
X014393Y066910
X044397Y029419
X006898Y014421
X070642Y051911
X108142Y059417
X059400Y021907
X044402Y044416
X108142Y006918
X021893Y051917
X021893Y074410
X123145Y059413
X078149Y029421
X051892Y021911
X036891Y051915
X021893Y029421
X108154Y040718
X078149Y014421
X006898Y029421
X036891Y081915
X123145Y051915
X093149Y014420
X051892Y081915
X093149Y074409
X029396Y029417
X029396Y014417
X085646Y025718
X100645Y074410
X123136Y025718
X108142Y051918
X044397Y014419
X006898Y059416
X014393Y059408
X021893Y036917
X021893Y059416
X078149Y051917
X108142Y014422
X044397Y036916
X115647Y006918
X029396Y051914
X093149Y036917
X044397Y051916
X014398Y010718
X059400Y051912
X115647Y051918
X093149Y006916
X051892Y059414
X123145Y006914
X078149Y066918
X070642Y036911
X078149Y036917
X093155Y044417
X044397Y066916
X036891Y029419
X123145Y036914
X070642Y006911
X115654Y078218
X078149Y059416
X085647Y059409
X006898Y036917
X029396Y021909
X006898Y078218
X036891Y036915
X036891Y014419
X036896Y044415
X100645Y051918
X051892Y074408
X044397Y074408
X093161Y025718
X059400Y014415
X070642Y066911
X070642Y029414
X100645Y081918
X029396Y059412
X078149Y081917
X100643Y040718
X093149Y051916
X123145Y066915
X085647Y066911
X078149Y021913
X051892Y006915
X085653Y044411
X100645Y014422
X115647Y036918
X093149Y066917
X036891Y021911
X059400Y059410
X059400Y066912
X021893Y066918
X021893Y021913
X036891Y074408
X006898Y066918
X036891Y059414
X029396Y081914
T5
X057400Y014415
X023887Y081917
X076150Y059416
X125139Y051915
X049892Y074408
X034891Y081915
X068643Y029414
X091149Y059415
X016387Y059408
X072636Y036911
X057400Y059410
X068643Y059409
X091155Y044417
X046396Y044416
X016392Y078218
X046390Y014419
X083647Y051911
X019893Y006917
X068643Y066911
X046390Y029419
X027401Y044414
X057400Y036912
X061393Y006912
X098645Y059416
X038884Y066916
X125139Y036914
X004904Y044417
X004898Y066918
X106142Y081918
X095143Y014420
X038890Y044415
X091161Y025718
X019893Y051917
X113647Y051918
X072636Y029414
X027396Y059412
X023887Y036917
X016392Y025718
X008897Y044417
X042397Y014419
X012398Y040718
X057400Y066912
X038884Y014419
X027396Y036914
X031389Y059412
X102638Y006918
X019893Y029421
X083647Y074403
X042397Y059414
X053886Y066916
X004898Y078218
X110136Y081918
X057400Y051912
X053886Y074408
X046390Y059414
X121150Y044414
X049892Y006915
X087641Y059409
X046390Y051916
X102638Y066918
X061393Y081912
X068643Y074403
X034891Y021911
X016387Y051910
X095143Y059415
X038884Y029419
X068643Y051911
X019893Y036917
X049893Y081915
X083647Y014414
X038884Y036915
X117641Y006918
X102638Y074410
X110136Y059417
X068643Y021906
X125139Y006914
X038884Y081915
X031389Y029417
X031389Y014417
X098643Y040718
X110130Y025718
X076150Y074410
X106136Y025718
X046390Y081916
X076150Y066918
X110136Y006918
X016392Y010718
X076150Y014421
X095143Y051916
X087641Y074403
X046390Y066916
X083647Y059409
X087641Y006911
X125139Y014418
X098645Y066918
X117641Y066918
X080143Y006917
X110136Y014422
X019893Y059416
X016392Y040718
X034891Y029419
X008891Y066918
X019893Y014421
X102638Y059416
X027396Y066914
X110136Y066919
X068643Y014414
X061393Y029415
X076150Y081917
X027396Y014417
X072636Y081911
X016387Y066910
X083647Y081911
X121145Y051915
X098645Y074410
X072636Y074403
X031389Y051914
X004898Y036917
X076155Y044417
X012393Y051910
X080143Y081917
X098635Y025718
X068648Y044411
X012393Y066910
X106142Y074411
X004898Y021913
X095143Y036917
X049892Y059414
X095143Y081916
X023887Y051917
X023887Y074410
X008891Y051917
X034891Y059414
X027396Y006914
X034891Y036915
X076150Y051917
X080143Y051917
X121136Y025718
X121145Y006914
X068643Y036911
X049892Y021911
X053886Y081915
X076150Y029421
X106154Y040718
X106142Y066919
X046390Y021911
X019893Y066918
X113647Y014422
X031395Y044414
X046390Y006916
X080149Y044417
X087641Y051911
X031389Y006914
X031389Y036914
X023887Y059416
X113654Y078218
X004898Y051917
X106142Y059417
X023887Y029421
X087641Y081911
X072636Y021906
X012398Y025718
X034891Y014419
X091149Y051916
X117648Y078218
X049892Y036915
X053886Y051915
X095143Y074409
X008891Y059416
X083647Y025718
X034897Y044415
X012393Y059408
X038884Y006915
X080143Y021913
X042397Y036916
X057400Y074404
X087646Y044411
X023887Y014421
X117641Y014422
X102638Y051918
X091149Y066917
X113647Y059416
X080143Y029421
X031389Y081914
X098645Y081918
X113647Y036918
X117646Y044418
X061393Y059410
X095148Y044417
X008892Y078218
X027396Y021909
X019893Y074410
X091149Y014420
X121145Y014418
X072636Y051911
X125139Y066915
X023887Y066918
X102638Y014422
X121145Y066915
X042397Y066916
X053886Y029419
X053886Y006915
X038884Y021911
X110136Y051918
X121145Y036914
X027396Y074406
X083653Y044411
X053886Y036915
X072642Y044411
X042397Y074408
X031389Y021909
X098645Y014422
X023887Y006917
X091149Y081916
X087641Y066911
X080143Y014421
X057400Y029415
X125144Y044414
X102637Y040718
X098645Y051918
X049892Y051915
X019894Y081917
X068643Y006911
X080143Y059416
X061393Y066912
X049892Y014419
X121154Y078218
X004898Y006917
X023892Y044417
X038884Y059414
X031389Y074406
X061393Y014415
X102629Y025718
X076150Y036917
X087641Y014414
X095143Y006916
X034891Y066916
X083647Y066911
X113647Y066918
X053886Y014419
X091149Y036917
X027396Y051914
X061393Y021907
X087641Y036911
X125148Y078218
X113636Y025718
X042397Y006916
X098645Y006918
X008891Y006917
X095155Y025718
X042397Y051916
X080143Y066918
X110148Y040718
X117630Y025718
X076150Y006917
X046390Y074408
X008891Y021913
X027396Y081914
X027396Y029417
X083647Y036911
X091149Y006916
X038884Y051915
X106142Y006918
X008891Y029421
X061393Y051912
X004898Y014421
X113652Y044418
X117641Y036918
X106142Y014422
X042403Y044416
X076150Y021913
X034891Y074408
X057400Y081912
X019893Y021913
X042397Y081916
X072636Y006911
X004898Y059416
X004898Y029421
X087640Y025718
X019899Y044417
X072636Y059409
X072636Y066911
X061393Y036912
X008891Y036917
X049892Y029419
X042397Y021911
X012398Y010718
X038884Y074408
X106142Y051918
X080143Y036917
X008891Y014421
X012398Y078218
X046390Y036916
X113647Y006918
X117641Y051918
X053886Y021911
X121145Y059413
X110136Y074411
X034891Y051915
X057400Y021907
X023887Y021913
X057400Y006912
X072636Y014414
X125139Y059413
X042397Y029419
X102638Y081918
X083647Y006911
X125130Y025718
X034891Y006915
X091149Y074409
X061393Y074404
X068643Y081911
X031389Y066914
X053886Y059414
X117641Y059416
X095143Y066917
X049892Y066916
X080143Y074410
T100
X035420Y063118
X099120Y078118
X079600Y085618
X038400Y055618
X008400Y055618
X106620Y048118
X121620Y085618
X124600Y040618
X124600Y085618
X072100Y033118
X053400Y085618
X020420Y055618
X072100Y070618
X035420Y078118
X027920Y055618
X099120Y070618
X008400Y033118
X008400Y070618
X060900Y078118
X094600Y063118
X030900Y070618
X079600Y063118
X027920Y078118
X042920Y085618
X099120Y010618
X020420Y018118
X091620Y078118
X045900Y078118
X069120Y048118
X102100Y033118
X087100Y078118
X109600Y085618
X109600Y078118
X106620Y085618
X087100Y055618
X076620Y085618
X102100Y010618
X102100Y055618
X027920Y070618
X099120Y055618
X106620Y063118
X124600Y048118
X012920Y048118
X005420Y070618
X030900Y085618
X117100Y055618
X005420Y010618
X045900Y070618
X094600Y055618
X084120Y018118
X069120Y085618
X124600Y055618
X121620Y033118
X102100Y070618
X117100Y018118
X076620Y063118
X117100Y048118
X124600Y033118
X042920Y055618
X035420Y033118
X005420Y055618
X091620Y063118
X020420Y085618
X106620Y018118
X053400Y078118
X094600Y033118
X106620Y078118
X099120Y048118
X114120Y085618
X060900Y085618
X084120Y063118
X020420Y048118
X038400Y033118
X053400Y055618
X038400Y078118
X008400Y085618
X114120Y063118
X035420Y085618
X038400Y070618
X114120Y070618
X057920Y063118
X050420Y070618
X042920Y078118
X121620Y070618
X015900Y033118
X069120Y078118
X087100Y063118
X102100Y078118
X094600Y078118
X109600Y070618
X050420Y085618
X102100Y063118
X076620Y055618
X045900Y085618
X109600Y063118
X030900Y078118
X035420Y070618
X005420Y018118
X023400Y055618
X005420Y040618
X121620Y055618
X087100Y018118
X091620Y033118
X012920Y063118
X023400Y085618
X038400Y018118
X087100Y085618
X117100Y063118
X027920Y085618
X045900Y063118
X038400Y063118
X117100Y033118
X087100Y070618
X020420Y078118
X072100Y018118
X035420Y055618
X069120Y063118
X023400Y078118
X060900Y070618
X084120Y033118
X030900Y063118
X015900Y085618
X008400Y025618
X015900Y055618
X008400Y048118
X012920Y085618
X084120Y048118
X114120Y033118
X053400Y070618
X114120Y048118
X030900Y055618
X050420Y055618
X072100Y063118
X057920Y070618
X114120Y040618
X020420Y033118
X027920Y063118
X106620Y033118
X023400Y018118
X053400Y063118
X084120Y078118
X008400Y018118
X121620Y040618
X008400Y010618
X072100Y048118
X084120Y070618
X053400Y018118
X099120Y063118
X094600Y085618
X012920Y018118
X045900Y055618
X008400Y063118
X020420Y063118
X102100Y085618
X084120Y085618
X038400Y085618
X106620Y055618
X015900Y070618
X015900Y018118
X117100Y040618
X079600Y055618
X114120Y055618
X057920Y078118
X005420Y048118
X020420Y070618
X124600Y063118
X091620Y085618
X050420Y033118
X102100Y018118
X015900Y063118
X023400Y063118
X012920Y055618
X109600Y048118
X012920Y070618
X124600Y070618
X099120Y018118
X060900Y063118
X109600Y055618
X005420Y085618
X091620Y070618
X076620Y078118
X072100Y055618
X076620Y070618
X008400Y040618
X072100Y085618
X087100Y048118
X038400Y048118
X035420Y018118
X087100Y033118
X005420Y033118
X109600Y033118
X069120Y055618
X069120Y070618
X117100Y085618
X114120Y018118
X005420Y025618
X084120Y055618
X012920Y033118
X091620Y055618
X050420Y018118
X109600Y010618
X106620Y070618
X042920Y063118
X069120Y018118
X050420Y063118
X050420Y078118
X005420Y063118
X106620Y010618
X023400Y033118
X121620Y048118
X079600Y070618
X094600Y070618
X023400Y048118
X102100Y048118
X035420Y048118
X099120Y033118
X121620Y063118
X117100Y070618
X099120Y085618
X072100Y078118
X042920Y070618
X069120Y033118
X079600Y078118
X057920Y085618
X053400Y033118
X015900Y048118
X109600Y018118
X023400Y070618
T101
X055900Y034518
X064500Y050618
X066300Y042018
X064000Y051418
X066888Y055618
X025600Y051518
X047888Y025707
X065500Y061409
X066288Y031413
X047888Y036513
X066888Y033118
X081888Y040124
X065711Y016413
X033111Y051522
X065000Y068911
X055400Y035018
X048388Y035707
X065700Y042618
X065500Y049004
X118611Y024013
X018200Y051518
X065000Y049818
X048388Y026513
X056500Y034018
X064000Y083918
X124611Y022707
X064500Y076403
X040592Y051522
X054800Y035518
X074400Y040718
X063111Y052430
T102
X037888Y023909
X012894Y052910
X027897Y060412
X109139Y068917
X005399Y052918
X050394Y022911
X037888Y053914
X005399Y007918
X071639Y008909
X060397Y016414
X012900Y079218
X060397Y031414
X005399Y060416
X022890Y038916
X079146Y068916
X091663Y026718
X022896Y046416
X035392Y067916
X116633Y027717
X116644Y053917
X035392Y082916
X101642Y076409
X076651Y075410
X037888Y076406
X027897Y022909
X022890Y031420
X007895Y038916
X079146Y016420
X099146Y015422
X114148Y037918
X007895Y008916
X037888Y031418
X052889Y061412
X022890Y008916
X045394Y061413
X079146Y008916
X050394Y052916
X057901Y075404
X045394Y016418
X086650Y046409
X094146Y083915
X027897Y067915
X116644Y038917
X114148Y015422
X086644Y083909
X037888Y038914
X035392Y007915
X030393Y076405
X084154Y045411
X037888Y016418
X091651Y052917
X106643Y007919
X116644Y061415
X027897Y007914
X042898Y030420
X121651Y045415
X099146Y082918
X079147Y083916
X057901Y007912
X086644Y053909
X084148Y075404
X109139Y053917
X060397Y068911
X020395Y037918
X037888Y008914
X015395Y080217
X091651Y037917
X037888Y083914
X099146Y075411
X086644Y038909
X027897Y015418
X069144Y015415
X005399Y037918
X030393Y031416
X101642Y053917
X086644Y068910
X022890Y083916
X071639Y016413
X084148Y015415
X050394Y060414
X086644Y076402
X114148Y067919
X069149Y045411
X094146Y061413
X015390Y053909
X050394Y067916
X124142Y053913
X076651Y060416
X007895Y016420
X091656Y045417
X079146Y023911
X005400Y079218
X015395Y012717
X094146Y068916
X022890Y061414
X030393Y008912
X124142Y061411
X069144Y060409
X109139Y016421
X027897Y075406
X030398Y046412
X030393Y053912
X086644Y016413
X084148Y060409
X109139Y076409
X027897Y052914
X052889Y068914
X030393Y083912
X091651Y015420
X106643Y067919
X012900Y026718
X101633Y027717
X094146Y053915
X020395Y060416
X116644Y016420
X099146Y007918
X076651Y067918
X015395Y042717
X005399Y015421
X035392Y015419
X035392Y037915
X124133Y027717
X022890Y076409
X022890Y016420
X042898Y060414
X052889Y083914
X106637Y026718
X069144Y082911
X007901Y046416
X042898Y067916
X094146Y076408
X030393Y038912
X005399Y067918
X027897Y082914
X057901Y015416
X094146Y016419
X020395Y075410
X114153Y045418
X012894Y067911
X109133Y027717
X007895Y031420
X099137Y026718
X042898Y015420
X030393Y068913
X007895Y023912
X121646Y037915
X005405Y045418
X114148Y052918
X052889Y008914
X101640Y042717
X012900Y041718
X124147Y046413
X121646Y007915
X012894Y060409
X007895Y053916
X045394Y076407
X071645Y046409
X007895Y061414
X037893Y046414
X091651Y007917
X045394Y008914
X050394Y007916
X030393Y016416
X060397Y023906
X069144Y037911
X101642Y068917
X071639Y083909
X094146Y038915
X116649Y046417
X052889Y031418
X121646Y067915
X042898Y052916
X121646Y015418
X084148Y037911
X069144Y007911
X079146Y053916
X035398Y045415
X015390Y068909
X076651Y052917
X069144Y075403
X121646Y052915
X094158Y027717
X101642Y016420
X022890Y068916
X071639Y053909
X124142Y016417
X045394Y038914
X091651Y082917
X099146Y067919
X027897Y037914
X076651Y015421
X084148Y052911
X020395Y067918
X071639Y023905
X042898Y022912
X052889Y016418
X045394Y083914
X052889Y053914
X045394Y031418
X030393Y061411
X022890Y053916
X007895Y080217
X027903Y045414
X099146Y052918
X057901Y030416
X035392Y022911
X076656Y045417
X076651Y082917
X052889Y038914
X071639Y038909
X050394Y015419
X020400Y045418
X057901Y022907
X037888Y068914
X086643Y027717
X005399Y030421
X076651Y030421
X109139Y008917
X091651Y067917
X069144Y030415
X045394Y023910
X069144Y067911
X084148Y007911
X124151Y080217
X057901Y037912
X106643Y015422
X030393Y023908
X071639Y061408
X057901Y060410
X050394Y037916
X109139Y083917
X042898Y075408
X121637Y026718
X050394Y030419
X114148Y060416
X106643Y075411
X020395Y015421
X045399Y046414
X035392Y052915
X101642Y083917
X121655Y079218
X042898Y007916
X060397Y053910
X114137Y026718
X060397Y061409
X124142Y038913
X109139Y061415
X076651Y022913
X045394Y068915
X037888Y061412
X114148Y007918
X042898Y037916
X060397Y076403
X020395Y022913
X114155Y079218
X106643Y052919
X027897Y030418
X022890Y023912
X084148Y026718
X035392Y075408
X079152Y046416
X015390Y061407
X106643Y060417
X069144Y022906
X050394Y082916
X079146Y031420
X101642Y008917
X015395Y027717
X084148Y082911
X042904Y045416
X035392Y060414
X007895Y068916
X091651Y075409
X071639Y076402
X124142Y008913
X101642Y061415
X079146Y076408
X109151Y042717
X116644Y068917
X012900Y011718
X060397Y008910
X116651Y080217
X057901Y052912
X099146Y060416
X057901Y067912
X079146Y038916
X086644Y008909
X116644Y008917
X106655Y041718
X050394Y075408
X005399Y022913
X124142Y068914
X060397Y083910
X042898Y082916
X086644Y061408
X052889Y076406
X020395Y030421
X099144Y041718
X057901Y082912
X020395Y007918
X071639Y068910
X076651Y007917
X045394Y053914
X071639Y031413
X069144Y052911
X106643Y082919
X020395Y082918
X052889Y023909
X076651Y037917
X020395Y052918
X060397Y038910
X094152Y046415
X121646Y060413
X094146Y008915
X091651Y060415
X084148Y067911
X079146Y061414
X035392Y030419
T103
X052165Y041397
X056155Y047398
X061155Y047398
X058155Y047398
X060165Y041397
X053155Y047398
X053165Y041397
X049165Y041397
X057165Y041397
X050155Y047398
X052155Y047398
X058165Y041397
X059155Y047398
X051165Y041397
X050165Y041397
X060155Y047398
X061165Y041397
X057155Y047398
X055165Y041397
X055155Y047398
X054155Y047398
X049155Y047398
X062165Y041397
X051155Y047398
X059165Y041397
X056165Y041397
X054165Y041397
X062155Y047398
T00
M30
